<svg xmlns="http://www.w3.org/2000/svg">
	<symbol id="icon-search" viewBox="0 0 25 24" fill="none" xmlns="http://www.w3.org/2000/svg">
		<path d="M18.3591 16.6168L22.6418 20.8995L21.2276 22.3137L16.9449 18.031C15.405 19.263 13.4521 20 11.3281 20C6.36013 20 2.32812 15.968 2.32812 11C2.32812 6.032 6.36013 2 11.3281 2C16.2961 2 20.3281 6.032 20.3281 11C20.3281 13.124 19.5911 15.0769 18.3591 16.6168ZM16.3528 15.8748C17.5756 14.6146 18.3281 12.8956 18.3281 11C18.3281 7.1325 15.1956 4 11.3281 4C7.46062 4 4.32812 7.1325 4.32812 11C4.32812 14.8675 7.46062 18 11.3281 18C13.2237 18 14.9427 17.2475 16.2029 16.0247L16.3528 15.8748Z" fill="currentColor" />
	</symbol>
	<symbol id="icon-star" viewBox="0 0 16 16" fill="none" xmlns="http://www.w3.org/2000/svg">
		<path d="M8.00105 12.1734L3.29875 14.8055L4.34897 9.51997L0.392578 5.86124L5.74394 5.22675L8.00105 0.333374L10.2581 5.22675L15.6095 5.86124L11.6531 9.51997L12.7033 14.8055L8.00105 12.1734Z" fill="white" />
	</symbol>
	<symbol id="icon-loader" viewBox="0 0 60 60" fill="none" xmlns="http://www.w3.org/2000/svg">
		<path d="M26.9 21.2062C27.2 21.8182 27 22.5632 26.425 22.9091C25.85 23.2284 25.125 23.0155 24.825 22.4035C24.5 21.7916 24.725 21.02 25.3 20.7007C25.85 20.3548 26.575 20.5942 26.9 21.2062C26.875 21.2062 26.875 21.2062 26.9 21.2062ZM21.075 30.9978C20.75 31.184 20.625 31.6364 20.8 32.0089C20.975 32.3548 21.4 32.4878 21.725 32.3015C21.725 32.3015 21.725 32.3015 21.75 32.3015C22.075 32.1153 22.225 31.6896 22.05 31.3171V31.2905C21.825 30.9446 21.4 30.8115 21.075 30.9978ZM20.95 27.9911C20.55 28.2306 20.425 28.7361 20.625 29.1619C20.85 29.5876 21.325 29.7472 21.725 29.5078C22.125 29.2683 22.275 28.7627 22.05 28.337C21.85 27.9113 21.35 27.7517 20.95 27.9911ZM21.7 25.0909C21.25 25.357 21.075 25.9424 21.325 26.4213C21.575 26.9002 22.125 27.0865 22.575 26.8204C23.025 26.5543 23.2 25.969 22.95 25.49C22.7 25.0111 22.125 24.8248 21.7 25.0909ZM23.175 22.5898C22.675 22.8559 22.5 23.5477 22.75 24.0798C22.75 24.0798 22.75 24.0798 22.75 24.1064C23.025 24.6386 23.65 24.8514 24.15 24.5588C24.65 24.2661 24.85 23.6009 24.575 23.0687C24.325 22.51 23.7 22.2971 23.175 22.5898C23.2 22.5898 23.2 22.5898 23.175 22.5898ZM22.05 33.8714C21.775 34.031 21.675 34.4035 21.825 34.6962C21.975 34.9889 22.325 35.0953 22.6 34.9357C22.875 34.7761 22.975 34.4035 22.825 34.0843C22.675 33.8182 22.325 33.7118 22.05 33.8714ZM35.425 23.6009C35.6 23.9468 36.025 24.0798 36.375 23.8936C36.7 23.7073 36.825 23.255 36.65 22.8825C36.475 22.5366 36.05 22.4035 35.725 22.5898C35.375 22.7761 35.25 23.2284 35.425 23.6009ZM33.075 22.0044C33.275 22.4302 33.775 22.5632 34.175 22.3503C34.575 22.1109 34.725 21.6053 34.5 21.1796C34.3 20.7539 33.8 20.5942 33.4 20.8337C33.025 21.0466 32.875 21.5787 33.075 22.0044ZM30.35 21.2328C30.575 21.7118 31.15 21.8714 31.575 21.6319C32.025 21.3659 32.2 20.7805 31.95 20.3015C31.7 19.8226 31.15 19.6364 30.725 19.9024C30.275 20.1419 30.125 20.7539 30.35 21.2328ZM27.525 21.3392C27.8 21.8714 28.425 22.0843 28.925 21.7916C29.425 21.4989 29.625 20.8337 29.35 20.2749C29.075 19.7428 28.425 19.5565 27.925 19.8758C27.45 20.1951 27.275 20.8337 27.525 21.3392ZM37.2 25.8625C37.35 26.1552 37.7 26.2616 37.975 26.102C38.25 25.9423 38.35 25.5965 38.225 25.2772C38.075 24.9845 37.725 24.8514 37.45 25.0111C37.15 25.1707 37.025 25.5698 37.2 25.8625ZM35.2 37.5698C34.9 36.9579 34.2 36.7184 33.625 37.0377C33.625 37.0377 33.625 37.0377 33.6 37.0377C33.025 37.357 32.825 38.102 33.125 38.714C33.125 38.714 33.125 38.714 33.125 38.7406C33.425 39.3525 34.15 39.5654 34.725 39.2461C35.3 38.9268 35.5 38.1818 35.2 37.5698ZM24.575 36.3725C24.4 36.0266 23.975 35.8936 23.65 36.0798C23.325 36.2661 23.2 36.7184 23.375 37.0643C23.55 37.4102 23.95 37.5432 24.3 37.357C24.3 37.357 24.3 37.357 24.325 37.357C24.625 37.1707 24.75 36.7184 24.575 36.3725ZM26.925 37.9423C26.7 37.5166 26.225 37.3836 25.825 37.5964C25.425 37.8093 25.275 38.3149 25.5 38.7406C25.5 38.7406 25.5 38.7406 25.5 38.7672C25.7 39.1929 26.2 39.3526 26.6 39.1131C27 38.9002 27.15 38.3681 26.925 37.9423ZM29.65 38.7406C29.425 38.2616 28.85 38.102 28.4 38.3415C27.95 38.6075 27.8 39.1929 28.025 39.6718C28.275 40.1508 28.825 40.337 29.275 40.0709C29.725 39.8049 29.9 39.2195 29.65 38.7406ZM32.5 38.6075C32.225 38.0754 31.6 37.8625 31.1 38.1552C30.6 38.4479 30.425 39.1131 30.7 39.6452C30.95 40.1774 31.575 40.3902 32.075 40.0976C32.075 40.0976 32.1 40.0976 32.1 40.0709C32.575 39.8315 32.75 39.1397 32.5 38.6075ZM38.925 28.9756C39.275 28.7627 39.4 28.3104 39.225 27.9645C39.05 27.6186 38.625 27.4856 38.3 27.6718C37.975 27.8581 37.825 28.3104 38 28.6563C38 28.6563 38 28.6563 38 28.6829C38.175 29.0022 38.6 29.1353 38.925 28.9756ZM39.05 31.9823C39.45 31.7428 39.575 31.2372 39.375 30.8115C39.175 30.3858 38.675 30.2262 38.3 30.4656C37.9 30.7051 37.75 31.2106 37.975 31.6364C38.175 32.0355 38.675 32.1951 39.05 31.9823ZM38.325 34.8825C38.775 34.6164 38.95 34.031 38.7 33.5521C38.45 33.0732 37.9 32.8869 37.45 33.153C37 33.4191 36.825 34.0044 37.075 34.4834C37.325 34.9357 37.875 35.122 38.325 34.8825ZM36.825 37.357C37.325 37.0909 37.525 36.3991 37.25 35.867C36.975 35.3348 36.35 35.1219 35.85 35.4146C35.35 35.7073 35.15 36.3725 35.425 36.9047C35.7 37.4634 36.3 37.6497 36.825 37.357C36.825 37.3836 36.825 37.3836 36.825 37.357ZM34.825 18.1996C34.6 19.051 33.75 19.5299 32.95 19.2905C32.15 19.051 31.7 18.1463 31.925 17.2949C31.925 17.2949 31.925 17.2949 31.925 17.2683C32.175 16.4168 33 15.9379 33.8 16.1774C34.625 16.4701 35.075 17.3481 34.825 18.1996ZM20.325 22.0044C19.925 21.898 19.5 22.1375 19.375 22.5632C19.275 22.9889 19.525 23.4146 19.925 23.5211C20.3 23.6275 20.7 23.388 20.825 22.9889C20.95 22.5898 20.7 22.1375 20.325 22.0044ZM22.95 18.9446C22.45 18.7849 21.95 19.0776 21.8 19.6098C21.65 20.1153 21.925 20.6741 22.425 20.8337C22.925 20.9933 23.425 20.6741 23.575 20.1685C23.7 19.6364 23.425 19.1042 22.95 18.9446ZM26.3 16.7627C25.675 16.5765 25.025 16.949 24.85 17.6142C24.675 18.2794 25.025 18.9712 25.65 19.1574C26.275 19.3437 26.925 18.9712 27.1 18.3326C27.275 17.6674 26.925 16.9756 26.3 16.7627ZM30.025 15.8847C29.325 15.6718 28.6 16.071 28.375 16.816C28.175 17.561 28.575 18.3326 29.25 18.5455C29.95 18.7583 30.675 18.3326 30.875 17.5876C31.125 16.8958 30.75 16.0976 30.025 15.8847C30.05 15.8847 30.05 15.8847 30.025 15.8847ZM18.65 25.8093C18.35 25.7295 18.05 25.8891 17.975 26.2084C17.875 26.5277 18.05 26.847 18.35 26.9534C18.65 27.0333 18.95 26.8736 19.05 26.5543C19.125 26.235 18.95 25.9157 18.65 25.8093ZM41.275 29.4013C41.15 29.827 41.375 30.2528 41.775 30.3858C42.175 30.5188 42.575 30.2794 42.7 29.8537C42.825 29.4279 42.6 29.0022 42.2 28.8692C41.8 28.7361 41.4 28.9756 41.275 29.4013ZM40.4 25.4102C40.25 25.9423 40.525 26.4745 41.025 26.6341C41.525 26.7938 42.025 26.5011 42.175 25.969C42.325 25.4368 42.05 24.9047 41.55 24.745C41.075 24.612 40.55 24.9047 40.4 25.4102ZM38.375 21.8448C38.2 22.51 38.55 23.2018 39.175 23.388C39.8 23.5743 40.45 23.2018 40.625 22.5366C40.8 21.8714 40.45 21.1796 39.85 20.9933C39.2 20.8071 38.55 21.1796 38.375 21.8448ZM35.5 19.051C35.3 19.796 35.7 20.5676 36.4 20.7805C37.1 20.9933 37.825 20.5676 38.025 19.8226C38.225 19.0776 37.825 18.306 37.15 18.0931C36.45 17.8803 35.725 18.306 35.5 19.051ZM40.975 33.4191C40.9 33.7384 41.05 34.0576 41.35 34.1641C41.65 34.2705 41.95 34.0843 42.05 33.765C42.15 33.4457 41.975 33.1264 41.675 33.02C41.375 32.9135 41.05 33.0998 40.975 33.4191ZM28.075 42.6785C28.325 41.827 27.85 40.9224 27.05 40.6829C26.25 40.4435 25.4 40.9224 25.175 41.7738C24.925 42.6253 25.4 43.5299 26.2 43.7694C27 44.0355 27.85 43.5299 28.075 42.6785ZM18.725 30.5721C18.85 30.1463 18.625 29.7206 18.225 29.5876C17.825 29.4545 17.425 29.7206 17.3 30.1197C17.175 30.5455 17.4 30.9712 17.8 31.1042C18.2 31.2372 18.6 30.9978 18.725 30.5721ZM19.6 34.5366C19.75 34.031 19.475 33.4723 18.975 33.3392C18.5 33.1796 17.975 33.4723 17.825 33.9778V34.0044C17.675 34.5366 17.975 35.0687 18.45 35.2284C18.95 35.3614 19.45 35.0687 19.6 34.5366ZM21.625 38.1286C21.8 37.4634 21.45 36.7716 20.825 36.5588C20.2 36.3725 19.55 36.745 19.375 37.4102C19.2 38.0754 19.55 38.7672 20.15 38.9534C20.8 39.1663 21.45 38.7938 21.625 38.1286ZM24.5 40.9224C24.7 40.1774 24.3 39.4058 23.6 39.1663C22.9 38.9534 22.175 39.3792 21.975 40.0976C21.975 40.0976 21.975 40.0976 21.975 40.1242C21.775 40.8692 22.175 41.6408 22.875 41.8537C23.55 42.0931 24.3 41.6674 24.5 40.9224ZM39.7 37.969C40.1 38.102 40.525 37.8625 40.625 37.4368C40.75 37.0111 40.525 36.5854 40.125 36.4523C39.725 36.3193 39.325 36.5854 39.2 36.9845C39.075 37.3836 39.3 37.8359 39.7 37.969ZM37.075 41.0288C37.55 41.1885 38.075 40.8958 38.225 40.3636C38.375 39.8581 38.1 39.2993 37.625 39.1397C37.125 38.98 36.625 39.2727 36.475 39.8049C36.3 40.337 36.575 40.8692 37.075 41.0288ZM33.7 43.2106C34.325 43.3969 34.975 43.0244 35.15 42.3592C35.325 41.694 34.975 41.0022 34.35 40.816C33.725 40.6297 33.075 41.0022 32.9 41.6674C32.725 42.306 33.075 42.9978 33.7 43.2106ZM29.975 44.0887C30.675 44.3015 31.4 43.9024 31.6 43.1574C31.6 43.1574 31.6 43.1574 31.6 43.1308C31.8 42.3858 31.4 41.6142 30.7 41.3747C30 41.1619 29.275 41.5876 29.05 42.3326C28.875 43.1042 29.275 43.8758 29.975 44.0887ZM42.375 19.0244C41.625 19.8492 40.4 19.9024 39.625 19.1042C38.85 18.3326 38.8 17.0288 39.55 16.1774C40.275 15.3525 41.5 15.2993 42.3 16.071C43.075 16.8692 43.125 18.1996 42.375 19.0244ZM22.975 14.3149C22.6 13.9423 22 13.9423 21.625 14.3681C21.25 14.7672 21.275 15.4058 21.65 15.8049C22.025 16.1774 22.65 16.1774 23 15.7517C23.375 15.3525 23.375 14.714 22.975 14.3149ZM27.85 12.3459C27.375 11.867 26.625 11.8936 26.175 12.3991C25.725 12.9047 25.75 13.7029 26.225 14.1818C26.7 14.6608 27.45 14.6341 27.9 14.1286C28.35 13.6231 28.325 12.8248 27.85 12.3459ZM33.05 11.9468C32.45 11.3348 31.5 11.3614 30.925 12C30.375 12.6652 30.425 13.6763 31.05 14.2616C31.65 14.8204 32.55 14.7938 33.125 14.2084C33.7 13.5698 33.65 12.5588 33.05 11.9468ZM38 13.3038C37.325 12.612 36.25 12.6386 35.6 13.3836C34.95 14.102 35 15.2461 35.675 15.9379C36.35 16.6297 37.425 16.5765 38.075 15.8581C38.7 15.1131 38.675 13.969 38 13.3038ZM18.85 17.7738C18.55 17.4812 18.1 17.5078 17.85 17.8004C17.575 18.0931 17.6 18.5721 17.875 18.8647C18.15 19.1574 18.6 19.1308 18.875 18.8381C19.15 18.5455 19.15 18.0665 18.85 17.7738ZM43.75 36.5588C43.375 36.9579 43.4 37.6231 43.8 37.9956C44.2 38.3681 44.8 38.3415 45.15 37.9157C45.5 37.5166 45.475 36.878 45.1 36.5055C44.725 36.133 44.125 36.133 43.75 36.5588ZM45 31.2905C44.55 31.796 44.575 32.5942 45.05 33.0732C45.525 33.5521 46.275 33.5255 46.725 33.02C47.175 32.5144 47.15 31.7162 46.675 31.2372C46.175 30.7583 45.45 30.7849 45 31.2905ZM44.6 25.7295C44.025 26.3681 44.05 27.3792 44.65 27.9911C45.25 28.6031 46.2 28.5765 46.775 27.9379C47.325 27.2727 47.275 26.2616 46.675 25.6763C46.1 25.0643 45.175 25.1175 44.6 25.7295ZM42.8 20.5676C42.15 21.286 42.2 22.4302 42.875 23.122C43.55 23.8137 44.625 23.7605 45.275 23.0421C45.925 22.3237 45.875 21.1796 45.2 20.4878C44.5 19.8226 43.425 19.8492 42.8 20.5676ZM41.125 41.1353C40.85 41.4545 40.875 41.9335 41.15 42.1996C41.425 42.4922 41.875 42.4656 42.15 42.1729C42.425 41.8803 42.4 41.4013 42.125 41.1086C42.125 41.1086 42.125 41.1086 42.1 41.082C41.85 40.816 41.4 40.816 41.125 41.1353ZM20.45 43.796C21.175 42.9446 21.125 41.6408 20.35 40.8692C19.575 40.0976 18.35 40.1508 17.625 40.949C16.9 41.8004 16.975 43.1042 17.775 43.8758C18.55 44.5942 19.725 44.5676 20.45 43.796ZM16.25 23.4146C16.625 23.0155 16.6 22.3503 16.2 21.9778C15.825 21.5787 15.225 21.6053 14.85 22.0044C14.475 22.4302 14.5 23.0687 14.9 23.4678C15.275 23.8404 15.875 23.8137 16.25 23.4146ZM15.025 28.6829C15.475 28.1774 15.45 27.3792 14.975 26.9002C14.475 26.4479 13.75 26.4745 13.3 27.0066C12.875 27.5122 12.9 28.2572 13.35 28.7361C13.825 29.2151 14.575 29.1885 15.025 28.6829ZM15.4 34.2439C15.975 33.6053 15.95 32.5942 15.325 31.9823C14.725 31.3703 13.775 31.3969 13.2 32.0621C12.625 32.7007 12.65 33.7118 13.275 34.3237C13.875 34.9091 14.825 34.8825 15.4 34.2439ZM17.225 39.4058C17.875 38.6874 17.825 37.5432 17.15 36.8514C16.475 36.1596 15.4 36.2129 14.775 36.9313C14.125 37.6497 14.15 38.7938 14.825 39.4856C15.5 40.1508 16.575 40.1242 17.225 39.4058ZM37.025 45.6585C37.4 46.0576 38.025 46.031 38.375 45.6053C38.725 45.2062 38.725 44.5676 38.325 44.1685C37.95 43.7694 37.35 43.796 36.975 44.1951C36.625 44.6208 36.65 45.2594 37.025 45.6585ZM32.175 47.6275C32.65 48.1064 33.4 48.0798 33.85 47.5743C34.3 47.0687 34.275 46.2705 33.8 45.7916C33.325 45.3126 32.575 45.3392 32.125 45.8448C31.675 46.3503 31.7 47.1486 32.175 47.6275ZM26.95 48.0266C27.55 48.6386 28.5 48.612 29.075 47.9734C29.65 47.3348 29.625 46.3237 29.025 45.7118C28.425 45.0998 27.475 45.1264 26.9 45.765C26.3 46.4035 26.35 47.4146 26.95 48.0266ZM22.025 46.6696C22.7 47.3614 23.775 47.3082 24.4 46.5898C25.05 45.8714 25 44.7273 24.325 44.0355C23.65 43.3437 22.575 43.3969 21.925 44.1153C21.3 44.8603 21.35 46.0044 22.025 46.6696ZM50.275 23.4146C49.075 23.9734 47.7 23.3614 47.175 22.1109C46.675 20.8337 47.225 19.3437 48.4 18.8115C49.6 18.2794 50.975 18.918 51.475 20.1951C51.95 21.4191 51.425 22.8559 50.275 23.4146ZM33.725 7.45011C33.575 6.7051 32.9 6.22616 32.2 6.3592C31.5 6.49224 31.05 7.23725 31.175 7.98226C31.35 8.72727 32.05 9.1796 32.75 9.01995C33.4 8.86031 33.825 8.16851 33.725 7.45011ZM39.3 8.72727C39.075 7.82262 38.225 7.29046 37.4 7.50333C36.55 7.71619 36.05 8.64745 36.25 9.5255C36.475 10.4302 37.325 10.9623 38.175 10.7228C39.025 10.5366 39.525 9.63193 39.3 8.72727ZM44.45 11.388C44.125 10.2971 43.025 9.68514 42 10.0044C40.975 10.3503 40.375 11.5211 40.7 12.612C41.05 13.7029 42.175 14.2882 43.2 13.9157C44.2 13.5698 44.75 12.4523 44.45 11.388ZM48.575 15.2727C48.15 14.0754 46.925 13.4634 45.8 13.9157C44.675 14.3415 44.1 15.6718 44.525 16.8692C44.95 18.0665 46.175 18.6785 47.3 18.2262C48.4 17.8004 48.975 16.4701 48.575 15.2727ZM22.525 8.99335C22.325 8.4878 21.75 8.24834 21.275 8.4612C20.8 8.70066 20.575 9.28603 20.8 9.79157C21 10.2971 21.575 10.5366 22.05 10.3237C22.525 10.1109 22.75 9.49889 22.525 8.99335ZM46.15 42.2528C45.575 42.7051 45.45 43.5831 45.875 44.1951C46.3 44.7805 47.075 44.9401 47.65 44.5144C48.225 44.0621 48.375 43.2106 47.95 42.5987C47.55 41.9601 46.725 41.8004 46.15 42.2528ZM48.725 36.8514C47.975 37.3304 47.75 38.3681 48.2 39.1663C48.65 39.9645 49.625 40.204 50.375 39.7251C50.4 39.7251 50.4 39.6984 50.425 39.6984C51.15 39.1929 51.35 38.1552 50.875 37.3836C50.4 36.612 49.45 36.3725 48.725 36.8514ZM49.95 30.7583C49 31.3171 48.675 32.5942 49.2 33.6053C49.725 34.6164 50.925 34.9623 51.875 34.4035C52.825 33.8448 53.15 32.5676 52.625 31.5565C52.1 30.5721 50.9 30.1996 49.95 30.7583ZM49.875 24.6652C48.8 25.2239 48.375 26.6075 48.9 27.7517C49.425 28.8958 50.725 29.3481 51.8 28.7894C52.875 28.2306 53.3 26.847 52.775 25.7029C52.25 24.5854 50.95 24.1064 49.875 24.6652ZM37.975 49.6497C37.5 49.8625 37.275 50.4745 37.475 50.98C37.675 51.4856 38.25 51.7251 38.725 51.5122C39.2 51.2993 39.425 50.6874 39.225 50.1818C39 49.6763 38.45 49.4368 37.975 49.6497ZM11.6 41.1619C12.8 40.6031 13.35 39.1397 12.825 37.8625C12.3 36.5854 10.925 36 9.725 36.5588C8.525 37.0909 7.975 38.5809 8.5 39.8581C9 41.1353 10.4 41.7206 11.6 41.1619ZM13.85 17.7206C14.45 17.2949 14.575 16.4169 14.15 15.8049C13.75 15.1663 12.95 15.0333 12.35 15.459C11.775 15.9113 11.625 16.7627 12.025 17.3747C12.45 18.0133 13.275 18.1729 13.85 17.7206ZM11.275 23.122C12 22.6164 12.225 21.5787 11.75 20.8071C11.3 20.0355 10.325 19.796 9.575 20.2749C8.825 20.7539 8.625 21.8182 9.1 22.5898C9.55 23.388 10.525 23.6275 11.275 23.122ZM10.05 29.2151C11 28.6829 11.375 27.4058 10.875 26.3947C10.375 25.3836 9.175 24.9845 8.225 25.5166C8.2 25.5432 8.15 25.5432 8.125 25.5698C7.175 26.1286 6.85 27.4058 7.375 28.4169C7.9 29.4013 9.1 29.7738 10.05 29.2151ZM10.125 35.3082C11.2 34.7494 11.625 33.3659 11.1 32.2217C10.575 31.0776 9.275 30.6253 8.2 31.184C8.2 31.184 8.2 31.184 8.175 31.184C7.1 31.7428 6.675 33.1264 7.2 34.2705C7.75 35.388 9.05 35.867 10.125 35.3082ZM26.275 52.5233C26.425 53.2683 27.1 53.7738 27.8 53.6142C28.5 53.4545 28.95 52.7361 28.825 51.9911C28.675 51.2461 28 50.7672 27.3 50.9002C26.6 51.0599 26.15 51.7783 26.275 52.5233ZM20.7 51.2461C20.9 52.1508 21.775 52.6829 22.6 52.4701C23.45 52.2306 23.95 51.3259 23.725 50.4213C23.5 49.5166 22.65 48.9845 21.8 49.2239C21 49.4368 20.475 50.3415 20.7 51.2461ZM15.55 48.5854C15.875 49.6763 16.95 50.2882 18 49.969C18 49.969 18 49.969 18.025 49.969C19.05 49.6231 19.65 48.4523 19.325 47.3614C19 46.2705 17.9 45.6319 16.85 45.9778C15.8 46.3237 15.225 47.4945 15.55 48.5854ZM11.45 44.7007C11.85 45.898 13.1 46.51 14.225 46.0577C14.225 46.0577 14.225 46.0577 14.25 46.0577C15.375 45.6053 15.9 44.2483 15.475 43.0776C15.05 41.9335 13.85 41.3481 12.75 41.7472C11.6 42.1729 11.025 43.5033 11.45 44.7007ZM42.425 46.7228C42 47.0953 41.95 47.7871 42.3 48.2395C42.65 48.6652 43.25 48.745 43.675 48.3991C44.125 48.0532 44.225 47.3614 43.875 46.8825C43.525 46.4035 42.9 46.2971 42.45 46.6696C42.475 46.6962 42.45 46.7228 42.425 46.7228ZM32.9 51.0865C32.35 51.1663 31.95 51.7251 32.05 52.3104C32.125 52.8958 32.65 53.3215 33.2 53.2151C33.75 53.1353 34.15 52.5765 34.05 51.9911C33.975 51.4324 33.475 51.0067 32.9 51.0865ZM27.95 7.63636C27.875 7.051 27.35 6.62528 26.8 6.73171C26.25 6.81153 25.85 7.37029 25.95 7.95565C26.025 8.54102 26.55 8.96674 27.1 8.86031C27.65 8.78049 28.05 8.24834 27.95 7.63636ZM17.725 11.7339C17.375 11.255 16.75 11.1752 16.3 11.5477C15.85 11.9202 15.775 12.612 16.125 13.0643C16.475 13.5432 17.125 13.6231 17.55 13.2506C18 12.878 18.075 12.1863 17.725 11.7339ZM56.975 33.2062C55.3 33.2062 53.95 31.7694 53.95 29.9867C53.95 28.204 55.3 26.7672 56.95 26.7672C56.95 26.7672 56.95 26.7672 56.975 26.7672C58.65 26.7672 60 28.204 60 29.9601C60 31.7694 58.65 33.2062 56.975 33.2062ZM45.125 5.48115C45.325 4.52328 44.75 3.59202 43.85 3.37916C42.95 3.1663 42.075 3.77827 41.875 4.73614C41.675 5.69401 42.25 6.62528 43.15 6.83814C44.05 7.051 44.925 6.43902 45.125 5.48115ZM51.075 10.0044C51.25 8.8337 50.5 7.74279 49.4 7.55654C48.3 7.39689 47.275 8.22173 47.125 9.39246C46.975 10.5366 47.7 11.6009 48.775 11.7871C49.875 12 50.9 11.2018 51.075 10.0044ZM58.85 22.6962C58.925 21.0732 57.75 19.6896 56.225 19.5831C54.7 19.5033 53.4 20.7273 53.3 22.3503C53.2 23.9734 54.375 25.3836 55.9 25.49C57.425 25.5965 58.75 24.3459 58.85 22.7228C58.85 22.7494 58.85 22.7228 58.85 22.6962ZM31.225 1.27716C31.225 0.558758 30.675 0 30 0C29.325 0.0266075 28.8 0.611973 28.825 1.33038C28.85 1.99557 29.35 2.55432 30 2.58093C30.675 2.55432 31.225 1.99557 31.225 1.27716ZM43.15 53.1353C42.25 53.3481 41.675 54.2794 41.875 55.2372C42.075 56.1951 42.95 56.8071 43.85 56.5942C44.75 56.3814 45.325 55.4501 45.125 54.4922C44.925 53.5344 44.05 52.9224 43.15 53.1353ZM48.775 48.1596C47.675 48.3459 46.9 49.4368 47.075 50.6075C47.25 51.7783 48.275 52.6031 49.375 52.4169C49.4 52.4169 49.4 52.4169 49.425 52.4169C50.525 52.2306 51.275 51.1131 51.075 49.9423C50.875 48.7982 49.85 48 48.775 48.1596ZM53.1 41.6674C51.725 41.827 50.725 43.1308 50.85 44.6208C50.975 46.1109 52.225 47.1486 53.625 47.0155C55 46.8559 56 45.5521 55.875 44.0887C55.725 42.5987 54.475 41.5344 53.1 41.6674ZM55.925 34.4568C54.4 34.5366 53.225 35.9468 53.3 37.5698C53.375 39.1929 54.675 40.4435 56.2 40.3636C56.2 40.3636 56.2 40.3636 56.225 40.3636C57.75 40.2838 58.925 38.9002 58.85 37.2772C58.75 35.6275 57.45 34.3769 55.925 34.4568ZM30 57.4191C29.325 57.4457 28.8 58.031 28.825 58.7494C28.85 59.4412 29.35 60 30 60C30.675 60 31.2 59.4146 31.2 58.7228C31.2 58.031 30.675 57.4191 30 57.4191ZM3.025 33.2062C4.7 33.2062 6.05 31.7694 6.05 29.9867C6.05 28.204 4.7 26.7672 3.05 26.7672C1.35 26.7672 0 28.204 0 29.9867C0 31.7694 1.35 33.2062 3.025 33.2062ZM16.85 6.83814C17.75 6.65188 18.325 5.69401 18.15 4.73614C17.95 3.77827 17.075 3.1663 16.175 3.37916C15.25 3.59202 14.675 4.52328 14.875 5.48115C15.075 6.43902 15.95 7.051 16.85 6.83814ZM11.25 11.8137C12.35 11.6275 13.1 10.51 12.925 9.33924C12.75 8.16851 11.7 7.37029 10.6 7.55654C9.5 7.74279 8.75 8.8337 8.925 10.0044C9.1 11.1752 10.15 12 11.25 11.8137ZM6.9 18.2794C8.275 18.0931 9.25 16.7627 9.075 15.2993C8.9 13.8625 7.7 12.8514 6.375 12.9579C5 13.1175 4 14.4213 4.125 15.8847C4.275 17.3747 5.525 18.439 6.9 18.2794ZM54.275 18.2794C55.65 18.0931 56.625 16.7361 56.45 15.2727C56.275 13.8625 55.1 12.8248 53.75 12.9579C52.375 13.1175 51.375 14.4213 51.5 15.8847C51.65 17.3747 52.9 18.439 54.275 18.2794ZM4.075 25.49C5.6 25.4102 6.775 24.0266 6.7 22.3769C6.625 20.7805 5.325 19.5299 3.8 19.6098C3.8 19.6098 3.8 19.6098 3.775 19.6098C2.25 19.6896 1.075 21.0732 1.15 22.6962C1.25 24.3459 2.55 25.5965 4.075 25.49ZM14.875 54.4922C14.675 55.4501 15.25 56.3814 16.15 56.5942C17.05 56.8071 17.925 56.1951 18.125 55.2372C18.325 54.2794 17.75 53.3481 16.85 53.1353C15.95 52.9224 15.075 53.5344 14.875 54.4922ZM8.925 49.9423C8.75 51.1131 9.5 52.204 10.6 52.3902C11.7 52.5765 12.725 51.7783 12.9 50.6075C13.075 49.4368 12.325 48.3459 11.225 48.1596C10.15 47.9734 9.1 48.7716 8.925 49.9423ZM4.125 44.0621C3.975 45.5255 4.975 46.8559 6.35 47.0155C7.725 47.1752 8.975 46.1109 9.125 44.6474C9.275 43.184 8.275 41.8537 6.875 41.694C5.525 41.5344 4.275 42.5987 4.125 44.0621ZM1.15 37.2506C1.075 38.8736 2.25 40.2572 3.775 40.3636C5.3 40.4435 6.6 39.2195 6.7 37.5964C6.7 37.5964 6.7 37.5965 6.7 37.5698C6.775 35.9468 5.6 34.5632 4.075 34.4568C2.55 34.3769 1.25 35.6275 1.15 37.2506ZM36.65 56.3814C35.95 56.5676 35.55 57.3392 35.725 58.0843C35.9 58.8293 36.625 59.255 37.325 59.0687C38.025 58.8825 38.425 58.1109 38.25 57.3659C38.05 56.6208 37.35 56.1951 36.65 56.3814ZM23.35 56.3814C22.65 56.1951 21.95 56.6474 21.775 57.3925C21.6 58.1109 22 58.8559 22.675 59.0421C23.375 59.255 24.1 58.8293 24.3 58.1109C24.5 57.3659 24.1 56.5942 23.425 56.3814C23.4 56.3814 23.375 56.3814 23.35 56.3814ZM38.25 2.60754C38.425 1.86253 38.025 1.11752 37.325 0.904656C36.625 0.745011 35.925 1.19734 35.775 1.96896C35.625 2.66075 36 3.37916 36.65 3.59202C37.35 3.77827 38.05 3.35255 38.25 2.60754ZM24.275 1.88914C24.1 1.14412 23.375 0.718404 22.675 0.904656C21.975 1.11752 21.575 1.86253 21.75 2.60754C21.925 3.35255 22.65 3.77827 23.35 3.59202C24.05 3.37916 24.475 2.63415 24.275 1.88914Z" fill="currentColor" />
	</symbol>
	<symbol id="icon-refresh" viewBox="0 0 24 24" fill="none" xmlns="http://www.w3.org/2000/svg">
		<path d="M12 4C14.7486 4 17.1749 5.38626 18.6156 7.5H16V9.5H22V3.5H20V5.99936C18.1762 3.57166 15.2724 2 12 2C6.47715 2 2 6.47715 2 12H4C4 7.58172 7.58172 4 12 4ZM20 12C20 16.4183 16.4183 20 12 20C9.25144 20 6.82508 18.6137 5.38443 16.5H8V14.5H2V20.5H4V18.0006C5.82381 20.4283 8.72764 22 12 22C17.5228 22 22 17.5228 22 12H20Z" fill="currentColor" />
	</symbol>
	<symbol id="icon-fav" viewBox="0 0 24 24" fill="none" xmlns="http://www.w3.org/2000/svg">
		<path d="M16.5 3C19.5376 3 22 5.5 22 9C22 16 14.5 20 12 21.5C9.5 20 2 16 2 9C2 5.5 4.5 3 7.5 3C9.35997 3 11 4 12 5C13 4 14.64 3 16.5 3ZM12.9339 18.6038C13.8155 18.0485 14.61 17.4955 15.3549 16.9029C18.3337 14.533 20 11.9435 20 9C20 6.64076 18.463 5 16.5 5C15.4241 5 14.2593 5.56911 13.4142 6.41421L12 7.82843L10.5858 6.41421C9.74068 5.56911 8.5759 5 7.5 5C5.55906 5 4 6.6565 4 9C4 11.9435 5.66627 14.533 8.64514 16.9029C9.39 17.4955 10.1845 18.0485 11.0661 18.6038C11.3646 18.7919 11.6611 18.9729 12 19.1752C12.3389 18.9729 12.6354 18.7919 12.9339 18.6038Z" fill="currentColor" />
	</symbol>
	<symbol id="icon-movie" fill="currentColor" xmlns="http://www.w3.org/2000/svg" xmlns:xlink="http://www.w3.org/1999/xlink" viewBox="0 0 210.233 210.233" xml:space="preserve">
		<path d="M33.736,86.705c3.297,2.671,7.267,3.969,11.214,3.969c5.206,0,10.366-2.258,13.891-6.608
				c6.19-7.651,5.009-18.911-2.638-25.103c-3.703-3-8.336-4.379-13.101-3.881c-4.741,0.498-9.006,2.812-12.008,6.518
				c-3.002,3.706-4.377,8.357-3.881,13.099C27.712,79.44,30.029,83.703,33.736,86.705z M37.261,66.591
				c1.666-2.059,4.036-3.345,6.67-3.622c0.353-0.037,0.705-0.054,1.054-0.054c2.262,0,4.439,0.767,6.225,2.212
				c4.246,3.44,4.904,9.696,1.464,13.945c-3.44,4.251-9.704,4.906-13.949,1.466c-2.057-1.668-3.347-4.036-3.622-6.67
				C34.828,71.234,35.592,68.65,37.261,66.591z" />
		<path d="M113.468,134.565c-4.509-1.551-9.347-1.257-13.635,0.835c-4.284,2.09-7.499,5.723-9.053,10.232
				c-1.554,4.509-1.255,9.353,0.833,13.635c2.092,4.286,5.725,7.501,10.234,9.053c1.902,0.656,3.866,0.982,5.826,0.982
				c2.673,0,5.334-0.608,7.81-1.815c4.284-2.09,7.499-5.724,9.053-10.232s1.255-9.353-0.837-13.637
				C121.611,139.334,117.977,136.118,113.468,134.565z M117.032,154.671c-0.86,2.506-2.646,4.524-5.028,5.685
				c-2.382,1.161-5.063,1.33-7.577,0.463c-2.503-0.862-4.52-2.648-5.683-5.028c-1.162-2.38-1.325-5.071-0.461-7.575
				c0.86-2.506,2.646-4.524,5.028-5.685c1.395-0.682,2.874-1.003,4.331-1.003c3.672,0,7.209,2.049,8.929,5.568
				C117.733,149.477,117.896,152.167,117.032,154.671z" />
		<path d="M150.694,107c-2.526-4.044-6.477-6.86-11.125-7.935c-4.633-1.065-9.421-0.271-13.473,2.256
				c-4.044,2.528-6.86,6.477-7.933,11.123c-2.212,9.589,3.789,19.192,13.38,21.408c1.344,0.31,2.688,0.459,4.013,0.459
				c8.123,0,15.491-5.594,17.393-13.837C154.022,115.83,153.22,111.044,150.694,107z M145.217,118.691
				c-1.228,5.324-6.551,8.652-11.892,7.432c-5.326-1.232-8.662-6.568-7.43-11.896c0.593-2.58,2.161-4.772,4.408-6.176
				c1.596-0.998,3.397-1.511,5.233-1.511c0.748,0,1.503,0.085,2.251,0.256c2.58,0.597,4.776,2.163,6.178,4.41
				C145.372,113.449,145.814,116.109,145.217,118.691z" />
		<path d="M52.403,112.444c-1.073-4.647-3.889-8.596-7.933-11.123c-4.044-2.527-8.832-3.33-13.473-2.255
				c-4.649,1.073-8.6,3.889-11.125,7.933c-2.525,4.044-3.328,8.83-2.255,13.473c1.902,8.245,9.27,13.837,17.393,13.837
				c1.325,0,2.669-0.147,4.013-0.459C48.615,131.636,54.615,122.033,52.403,112.444z M37.242,126.12
				c-5.322,1.236-10.66-2.106-11.892-7.432c-0.597-2.58-0.155-5.239,1.251-7.484c1.402-2.247,3.599-3.814,6.178-4.408
				c0.748-0.173,1.503-0.257,2.251-0.257c1.836,0,3.637,0.513,5.233,1.511c2.247,1.404,3.816,3.597,4.408,6.176
				C45.903,119.554,42.568,124.891,37.242,126.12z" />
		<path d="M103.133,53.417c0-9.843-8.007-17.85-17.85-17.85s-17.85,8.007-17.85,17.85s8.007,17.85,17.85,17.85
				S103.133,63.26,103.133,53.417z M85.283,63.333c-5.47,0-9.917-4.449-9.917-9.917c0-5.468,4.447-9.917,9.917-9.917
				c5.47,0,9.917,4.449,9.917,9.917C95.2,58.884,90.753,63.333,85.283,63.333z" />
		<path d="M125.616,90.674c3.947,0,7.918-1.298,11.214-3.969c3.707-3.002,6.024-7.265,6.523-12.008
				c0.496-4.741-0.879-9.394-3.881-13.099c-6.194-7.647-17.459-8.826-25.105-2.638c-7.651,6.194-8.832,17.455-2.642,25.105
				C115.25,88.415,120.41,90.674,125.616,90.674z M119.356,65.127c4.257-3.446,10.509-2.783,13.949,1.464
				c1.67,2.059,2.433,4.643,2.157,7.277c-0.275,2.634-1.565,5.003-3.622,6.67c-4.257,3.446-10.505,2.785-13.949-1.466
				C114.452,74.823,115.111,68.567,119.356,65.127z" />
		<path d="M70.734,135.4c-4.288-2.092-9.127-2.388-13.635-0.835c-4.508,1.553-8.142,4.768-10.23,9.053
				c-2.092,4.284-2.39,9.128-0.837,13.637c1.553,4.509,4.768,8.142,9.053,10.232c2.475,1.207,5.136,1.815,7.81,1.815
				c1.956,0,3.924-0.325,5.826-0.982c4.509-1.551,8.142-4.767,10.23-9.051c2.092-4.284,2.39-9.128,0.837-13.637
				C78.235,141.123,75.018,137.489,70.734,135.4z M71.818,155.793c-1.158,2.378-3.177,4.164-5.679,5.026
				c-2.51,0.868-5.195,0.697-7.577-0.463c-2.382-1.16-4.168-3.178-5.028-5.685c-0.864-2.504-0.701-5.195,0.461-7.575
				c1.72-3.519,5.257-5.568,8.929-5.568c1.457,0,2.936,0.322,4.331,1.003c2.382,1.16,4.168,3.178,5.028,5.685
				C73.147,150.72,72.984,153.41,71.818,155.793z" />
		<path d="M210.209,185.862c-0.239-2.175-2.176-3.761-4.38-3.504c-32.059,3.517-44.853-33.426-45.384-35.001
				c-0.135-0.403-0.371-0.734-0.61-1.059c6.817-12.251,10.733-26.328,10.733-41.315c0-47.025-38.257-85.283-85.283-85.283
				C38.259,19.7,0,57.959,0,104.983c0,47.024,38.257,85.283,85.283,85.283c28.642,0,53.972-14.238,69.445-35.959
				c4.734,10.535,19.118,36.226,46.808,36.226c1.674,0,3.397-0.095,5.167-0.292C208.88,190.001,210.449,188.039,210.209,185.862z
				 M85.283,182.333c-42.65,0-77.35-34.699-77.35-77.35s34.7-77.35,77.35-77.35c42.65,0,77.35,34.699,77.35,77.35
				S127.933,182.333,85.283,182.333z" />
	</symbol>
	<symbol id="icon-vk" viewBox="0 0 36 36" fill="none" xmlns="http://www.w3.org/2000/svg">
		<rect x="0.5" y="0.5" width="35" height="35" rx="7.5" stroke="white" stroke-opacity="0.8" />
		<path fill-rule="evenodd" clip-rule="evenodd" d="M26.4865 14.3797C26.6253 13.9851 26.4865 13.6981 25.8719 13.6981H23.8298C23.3144 13.6981 23.0764 13.9492 22.9377 14.2183C22.9377 14.2183 21.8869 16.5141 20.4198 18.0027C19.9439 18.4332 19.7259 18.5767 19.4682 18.5767C19.3293 18.5767 19.1509 18.4332 19.1509 18.0386V14.3617C19.1509 13.8954 18.9923 13.6802 18.5561 13.6802H15.3444C15.0271 13.6802 14.8289 13.8954 14.8289 14.1106C14.8289 14.5591 15.5624 14.6667 15.6417 15.9222V18.6484C15.6417 19.2403 15.5228 19.3479 15.2651 19.3479C14.5711 19.3479 12.886 17.0342 11.8748 14.3976C11.6765 13.8775 11.4783 13.6802 10.9629 13.6802H8.90093C8.30617 13.6802 8.20703 13.9313 8.20703 14.2003C8.20703 14.6846 8.90093 17.1239 11.4386 20.3524C13.1239 22.5585 15.5228 23.7422 17.6838 23.7422C18.9923 23.7422 19.1509 23.4732 19.1509 23.0248V21.3568C19.1509 20.8187 19.2699 20.729 19.6862 20.729C19.9836 20.729 20.5189 20.8725 21.7283 21.9307C23.1161 23.1862 23.354 23.7602 24.1272 23.7602H26.1693C26.764 23.7602 27.0416 23.4911 26.883 22.971C26.7046 22.4509 26.0305 21.6976 25.1582 20.8007C24.6823 20.2986 23.9686 19.7426 23.7505 19.4735C23.4531 19.1148 23.5324 18.9713 23.7505 18.6484C23.7307 18.6484 26.2287 15.4559 26.4865 14.3797Z" fill="currentColor" />
	</symbol>
	<svg id="icon-telegram" viewBox="0 0 36 36" fill="none" xmlns="http://www.w3.org/2000/svg">
		<rect x="0.5" y="0.5" width="35" height="35" rx="7.5" stroke="white" stroke-opacity="0.8" />
		<path d="M8.60008 17.8588C10.2834 16.9316 12.1625 16.1577 13.9182 15.3799C16.9388 14.1058 19.9713 12.8539 23.0344 11.6883C23.6304 11.4897 24.7012 11.2955 24.8062 12.1787C24.7487 13.4288 24.5122 14.6717 24.35 15.9145C23.9382 18.6476 23.4623 21.3714 22.9982 24.0955C22.8383 25.0029 21.7016 25.4726 20.9742 24.892C19.2263 23.7113 17.465 22.5421 15.7394 21.3341C15.1741 20.7597 15.6983 19.9349 16.2031 19.5247C17.6427 18.106 19.1695 16.9006 20.5339 15.4085C20.9019 14.5197 19.8145 15.2687 19.4558 15.4982C17.4849 16.8564 15.5623 18.2975 13.4844 19.4911C12.423 20.0754 11.1859 19.5761 10.125 19.25C9.17372 18.8562 7.77979 18.4594 8.59999 17.8589L8.60008 17.8588Z" fill="currentColor" />
	</svg>
</svg>
